# xmcd CD database file
#
# Track frame offsets:
#	150
#	21162
#	40167
#	61087
#	98360
#	125280
#	145922
#	168922
#
# Disc length: 2538 seconds
#
# Revision: 0
# Processed by: cddbd v1.4PL0 Copyright (c) Steve Scherf et al.
# Submitted via: CDex 1.50beta10
#
DISCID=5a09e808
DTITLE=John Tropea - Tropea
DYEAR=1975
DGENRE=Jazz
TTITLE0=Tambourine
TTITLE1=7th heaven
TTITLE2=The jingle
TTITLE3=Just blue
TTITLE4=Muff
TTITLE5=Cisco disco
TTITLE6=Tha Bratt
TTITLE7=Dreams
EXTD=YEAR: 1975
EXTT0=
EXTT1=
EXTT2=
EXTT3=
EXTT4=
EXTT5=
EXTT6=
EXTT7=
PLAYORDER=
